<?xml version="1.0" encoding="UTF-8"?><svg id="Layer_1" xmlns="http://www.w3.org/2000/svg" viewBox="0 0 897.75 354.38"><defs><style>.cls-1{fill:#a4341d;}.cls-2{fill:#227bbe;}.cls-2,.cls-3{stroke:#211f20;stroke-linecap:round;stroke-miterlimit:10;stroke-width:13px;}.cls-4{fill:#211f20;}.cls-3{fill:#be2251;}.cls-5{fill:#f16043;}</style></defs><polygon class="cls-2" points="782.5 22.5 889.88 11.25 889.88 100.12 856.12 75.87 775.64 166.18 742.5 135 820.1 55.34 782.5 22.5"/><polygon class="cls-3" points="16.8 265.39 10.12 342 148.5 329.62 91.35 303.7 157.5 228.38 127.9 210.12 52.5 282.72 16.8 265.39"/><g><g><polygon class="cls-1" points="34.4 118.38 34.4 71.87 10.3 71.87 10.3 33.37 90.31 33.37 90.31 71.87 68.3 71.87 68.3 118.38 34.4 118.38"/><path class="cls-4" d="M83.81,39.87v25.5h-22v46.5h-20.9v-46.5H16.8v-25.5H83.81m13-13H3.8v51.5H27.9v46.5h46.9v-46.5h22V26.87h0Z"/></g><g><path class="cls-1" d="M206.2,119.98c-24.11,0-43-19.37-43-44.1s18.89-44,43-44c32.7,0,44.19,33.12,44.66,34.53l1.9,5.67-44.32,19.12c1.18,.22,2.23,.34,2.98,.4,.05,0,.11,0,.17,0,2.46,0,9.11-1.79,13.04-5.22l4.81-4.2,15.37,16.99-2.99,4.25c-.48,.68-11.91,16.56-35.62,16.56Z"/><path class="cls-4" d="M206.2,38.37c28.4,0,38.5,30.1,38.5,30.1l-50.3,21.7c3.5,5.3,10.3,7.4,16.5,7.9,.21,.02,.44,.03,.69,.03,4.02,0,12.13-2.3,17.31-6.83l7.6,8.4s-9.7,13.8-30.3,13.8-36.5-16.9-36.5-37.6,15.8-37.5,36.5-37.5m-19,34.3l24.9-10.7c-2-4.55-6.99-6.63-11.84-6.63-2.18,0-4.33,.42-6.16,1.23-5.8,2.7-9.3,10.6-6.9,16.1m19-47.3c-13.52,0-26.08,5.32-35.38,14.97-9.11,9.46-14.13,22.08-14.13,35.53s5.01,26.08,14.11,35.57c9.31,9.7,21.88,15.04,35.39,15.04,21.59,0,35.89-12.15,40.94-19.33l5.97-8.5-6.97-7.7-5.82-6.43,9.53-4.11,10.98-4.74-3.8-11.34c-.33-1-3.48-10-10.81-19.08-10.5-13.01-24.34-19.88-40.02-19.88h0Z"/></g><g><polygon class="cls-1" points="91.8 118.38 91.8 33.37 126.6 33.37 126.6 54.97 128.3 54.97 128.3 33.37 164 33.37 164 118.38 91.8 118.38"/><path class="cls-4" d="M157.5,39.87V111.88h-24.3v-39.1h-11.2v39.1h-23.7V39.87h21.8v21.6h14.7v-21.6h22.7m13-13H85.3V124.88h85.2V26.87h0Z"/></g></g><g><g><path class="cls-1" d="M709.11,330.02c-24.26,0-44-19.78-44-44.1,0-1.34,.06-2.67,.18-4h-8.58v46.5h-33.9v-46.5h-24.1v-38.5h83v8.12c7.67-6.1,17.3-9.62,27.4-9.62,32.7,0,44.19,33.12,44.66,34.53l1.9,5.67-44.32,19.12c1.18,.22,2.23,.34,2.98,.4,.06,0,.11,0,.17,0,2.46,0,9.1-1.79,13.03-5.22l4.81-4.2,15.37,16.99-2.99,4.25c-.48,.68-11.92,16.56-35.62,16.56Z"/><path class="cls-4" d="M709.11,248.42c28.4,0,38.5,30.1,38.5,30.1l-50.3,21.7c3.5,5.3,10.3,7.4,16.5,7.9,.21,.02,.45,.03,.69,.03,4.02,0,12.13-2.3,17.31-6.83l7.6,8.4s-9.7,13.8-30.3,13.8-37.5-16.9-37.5-37.6c0-3.65,.53-7.17,1.5-10.5h-22.9v46.5h-20.9v-46.5h-24.1v-25.5h70v19.96c6.02-12.68,18.94-21.46,33.9-21.46m-19,34.3l24.9-10.7c-2-4.55-6.99-6.63-11.84-6.63-2.18,0-4.33,.42-6.16,1.23-5.8,2.7-9.3,10.6-6.9,16.1m19-47.3c-7.32,0-14.43,1.62-20.9,4.57v-3.07h-96v51.5h24.1v46.5h46.9v-27.9c8,17.4,25.56,29.5,45.9,29.5,21.59,0,35.89-12.15,40.94-19.32l5.97-8.5-6.97-7.7-5.82-6.43,9.53-4.11,10.98-4.74-3.8-11.34c-.33-1-3.48-10-10.81-19.08-10.5-13.01-24.34-19.88-40.02-19.88h0Z"/></g><g><path class="cls-1" d="M784.81,329.72c-23.15,0-31.4-14.98-31.4-29v-6.5h3.94c-6.16-4.1-10.91-10.54-11.44-21.08-.45-7.83,2.01-14.86,7.12-20.27,6.79-7.19,18.08-11.16,31.78-11.16,4.77,0,8.95,.61,12.6,1.86v-.06h21.5v33.3h-19.03c8.41,3.01,17.56,8.18,18.99,20.35,1.06,9.05-.98,16.54-6.06,22.24-5.92,6.65-15.87,10.32-28,10.32Zm0-61c-.59,0-1.2,0-1.2,1.6,0,1.46,5.31,3.11,9.22,4.27l-.71-1.53c-1.71-3.68-3.4-4.34-7.31-4.34Z"/><path class="cls-4" d="M784.81,248.22c7.7,0,14.6,1.8,19.1,7.5v-5.7h8.5v20.3h-14.4c-3.3-7.1-8.2-8.1-13.2-8.1-5.8,0-7.7,4.7-7.7,8.1,0,14,32.9,7.1,35.3,27.6,2.3,19.7-13.6,25.3-27.6,25.3-17.5,0-24.9-10-24.9-22.5h19.1c.3,6.5,4.9,7.8,8.2,7.8,6.2,0,7.5-4,7.3-6.6-.5-10.8-40.7-.9-42.1-29.1-.9-15.7,12.6-24.6,32.4-24.6m0-13c-15.73,0-28.35,4.56-36.5,13.19-6.35,6.73-9.42,15.41-8.88,25.1,.4,7.86,2.95,14.63,7.48,20.02v7.19c0,10.06,3.34,18.74,9.67,25.1,4.71,4.74,13.44,10.4,28.23,10.4,14.01,0,25.68-4.44,32.85-12.5,4.38-4.92,9.26-13.65,7.66-27.31-.57-4.89-2.24-9.29-4.91-13.09h5v-46.3h-27.24c-4-1.2-8.46-1.8-13.37-1.8h0Z"/></g><g><polygon class="cls-1" points="836.1 328.52 836.1 271.92 813.6 271.92 813.6 243.42 888.31 243.42 888.31 271.92 873.71 271.92 873.71 328.52 836.1 328.52"/><path class="cls-4" d="M881.81,249.92v15.5h-14.6v56.6h-24.6v-56.6h-22.5v-15.5h61.7m13-13h-87.7v41.5h22.5v56.6h50.6v-56.6h14.6v-41.5h0Z"/></g></g><g><g><path class="cls-5" d="M10.3,240.92V119.93H88.35c22.28,0,40.4,17.92,40.4,39.95,0,29.2-24.16,39.8-40.4,39.8h-29.35v41.25H10.3Zm70.55-79.45c.93,0,3.95-.26,4-3.62-.09-1.22-.63-3.93-3.7-3.93h-22.15v7.55h21.85Z"/><path class="cls-4" d="M88.35,126.43c19.05,0,33.9,15.6,33.9,33.45,0,29.1-26.55,33.3-33.9,33.3H52.5v41.25H16.8V126.43H88.35m-35.85,41.55h28.35c4.65,0,10.5-3,10.5-10.2,0-1.65-1.35-10.35-10.2-10.35h-28.65v20.55m35.85-54.55H3.8V247.42h61.7v-41.25h22.85c6.85,0,17.42-2.02,26.56-7.69,13.12-8.14,20.34-21.85,20.34-38.61,0-12.2-4.82-23.77-13.59-32.58-8.89-8.94-20.72-13.87-33.31-13.87h0Z"/></g><g><path class="cls-5" d="M159.15,240.92c-14.65,0-27.5-12.71-27.5-27.2v-66.3c0-15.68,11.82-27.5,27.5-27.5h50.55c11.27,0,27.95,8.74,27.95,27.5v66.6c0,16.84-14.21,26.9-27.95,26.9h-50.55Zm18.08-87c-1.6,.13-3.48,.88-3.48,3.7v42.3c0,3.15,1.1,3.7,3.4,3.7s3.7-.62,3.7-3.7v-42c0-.93-.26-3.95-3.62-4Z"/><path class="cls-4" d="M209.7,126.43c8.55,0,21.45,6.75,21.45,21v66.6c0,12.3-10.5,20.4-21.45,20.4h-50.55c-10.8,0-21-9.3-21-20.7v-66.3c0-11.55,8.4-21,21-21h50.55m-32.55,83.7c6.6,0,10.2-4.2,10.2-10.2v-42c0-4.65-3-10.5-10.2-10.5-1.65,0-9.9,1.35-9.9,10.2v42.3c0,6.6,3.9,10.2,9.9,10.2m32.55-96.7h-50.55c-9.54,0-18.26,3.6-24.58,10.14-6.08,6.29-9.42,14.77-9.42,23.86v66.3c0,18.27,15.57,33.7,34,33.7h50.55c8.72,0,17.06-3.16,23.48-8.89,7.07-6.31,10.96-15.01,10.96-24.51v-66.6c0-10.3-4.39-19.52-12.35-25.96-6.23-5.04-14.5-8.04-22.1-8.04h0Z"/></g><g><polygon class="cls-5" points="246.25 240.92 246.25 119.93 294.65 119.93 294.65 194.62 356.29 194.62 356.29 240.92 246.25 240.92"/><path class="cls-4" d="M288.15,126.43v74.7h61.65v33.3h-97.05V126.43h35.4m13-13h-61.4V247.42h123.05v-59.3h-61.65V113.43h0Z"/></g><g><polygon class="cls-5" points="349.45 240.92 349.45 194.62 381.24 194.62 381.24 160.23 349.45 160.23 349.45 119.93 450.64 119.93 450.64 160.23 418.84 160.23 418.84 194.62 450.49 194.62 450.49 240.92 349.45 240.92"/><path class="cls-4" d="M444.14,126.43v27.3h-31.8v47.4h31.65v33.3h-88.05v-33.3h31.8v-47.4h-31.8v-27.3h88.2m13-13h-114.2v53.3h31.8v21.4h-31.8v59.3h114.05v-59.3h-31.65v-21.4h31.8v-53.3h0Z"/></g><g><polygon class="cls-5" points="485.19 240.92 485.19 171.18 449.04 171.18 449.04 119.93 567.04 119.93 567.04 171.18 529.54 171.18 529.54 240.92 485.19 240.92"/><path class="cls-4" d="M560.54,126.43v38.25h-37.5v69.75h-31.35v-69.75h-36.15v-38.25h105m13-13h-131v64.25h36.15v69.75h57.35v-69.75h37.5V113.43h0Z"/></g><g><polygon class="cls-5" points="565.74 240.92 565.74 194.62 597.54 194.62 597.54 160.23 565.74 160.23 565.74 119.93 666.94 119.93 666.94 160.23 635.14 160.23 635.14 194.62 666.79 194.62 666.79 240.92 565.74 240.92"/><path class="cls-4" d="M660.44,126.43v27.3h-31.8v47.4h31.65v33.3h-88.05v-33.3h31.8v-47.4h-31.8v-27.3h88.2m13-13h-114.2v53.3h31.8v21.4h-31.8v59.3h114.05v-59.3h-31.65v-21.4h31.8v-53.3h0Z"/></g><g><path class="cls-5" d="M697.94,240.92c-14.65,0-27.5-12.71-27.5-27.2v-66.3c0-15.68,11.82-27.5,27.5-27.5h56.25c11.27,0,27.95,8.74,27.95,27.5v25.25h-41.74l-.88-5.47c-1.75-10.9-8.95-12.53-13.08-12.53-8.67,0-16,11.72-16,25.6s7.33,25.45,16,25.45c5.2,0,10.24-3.95,12.55-9.83l1.62-4.12h41.53v21.95c0,15.25-12.08,27.2-27.5,27.2h-56.7Z"/><path class="cls-4" d="M754.19,126.43c8.55,0,21.45,6.75,21.45,21v18.75h-29.7c-2.1-13.05-10.95-18-19.5-18-12.45,0-22.5,14.4-22.5,32.1s10.05,31.95,22.5,31.95c7.8,0,15.3-5.55,18.6-13.95h30.6v15.45c0,12.3-10.05,20.7-21,20.7h-56.7c-10.8,0-21-9.3-21-20.7v-66.3c0-11.55,8.4-21,21-21h56.25m0-13h-56.25c-9.54,0-18.26,3.6-24.58,10.14-6.08,6.29-9.42,14.77-9.42,23.86v66.3c0,18.27,15.57,33.7,34,33.7h56.7c8.79,0,17.13-3.29,23.5-9.25,6.77-6.35,10.5-15.03,10.5-24.45v-28.45h-52.46l-3.24,8.25c-1.46,3.7-4.43,5.7-6.5,5.7-3.78,0-9.5-7.56-9.5-18.95s5.72-19.1,9.5-19.1c2.73,0,5.66,.84,6.66,7.06l1.76,10.93h53.77v-31.75c0-10.3-4.39-19.52-12.35-25.96-6.23-5.04-14.5-8.04-22.1-8.04h0Z"/></g><g><path class="cls-5" d="M836.54,243.32c-30.98,0-46.25-18.11-50-27.68l-2.1-5.37,28.99-15.59,2.9,6.25c2.97,6.39,10.75,8.65,16.51,8.65,.97,0,1.89-.06,2.73-.19,6.23-.97,6.08-3.47,6.03-4.29-.23-4.12-9.09-7.58-17.67-10.94-15.02-5.87-33.71-13.18-35.27-33.5-.95-12.3,1.99-22.23,8.75-29.53,8.5-9.19,22.4-13.65,42.49-13.65,1.1,0,2.18,.01,3.24,.04,21.58,.38,37.26,12.26,37.26,28.25v16.7h-20.47c15.3,4.95,30.58,14.29,31.71,37.13,.62,10.86-2.76,20.56-9.79,28-9.57,10.13-25.66,15.72-45.3,15.72Zm-7.76-89.65c1.16,1.25,5.6,2.51,10.01,3.56l-.04-.96c-.09-1.88-.18-4.02-5-4.02-.19,0-.37,0-.53,.01-3.11,.18-4.28,1.13-4.45,1.41Z"/><path class="cls-4" d="M839.89,123.99c1.05,0,2.08,.01,3.1,.03,16.95,.3,30.9,8.85,30.9,21.75v10.2h-28.65c-.42-9.05-7.69-10.22-11.49-10.22-.29,0-.56,0-.81,.02-7.8,.45-10.95,4.5-10.65,8.4,.75,16.2,60.75,3.45,62.85,45.75,1.35,23.55-18.9,36.9-48.6,36.9s-41.25-16.65-43.95-23.55l17.85-9.6c4.24,9.13,14.54,12.41,22.4,12.41,1.31,0,2.56-.09,3.7-.26,8.7-1.35,11.85-6,11.55-11.1-1.05-18.6-50.7-15.3-52.95-44.55-2.43-31.41,24.08-36.18,44.75-36.18m0-13s0,0,0,0c-22,0-37.45,5.15-47.26,15.74-8.03,8.68-11.55,20.27-10.46,34.45,.86,11.12,6.27,20.38,16.11,27.52,1.84,1.34,3.77,2.55,5.74,3.67l-17.59,9.46-10.15,5.46,4.2,10.73c4.31,11,21.56,31.81,56.05,31.81,21.45,0,39.21-6.31,50.03-17.75,8.28-8.77,12.27-20.12,11.55-32.84-.62-12.21-5.18-22.51-13.32-30.25h2.09v-23.2c0-19.69-18.37-34.3-43.67-34.75-1.1-.02-2.23-.04-3.33-.04h0Z"/></g></g></svg>